<svg>
  <rect
     transform="rotate(-30)"
     y="14.676927"
     x="16.000084"
     height="7.1554518"
     width="7.1554518"
     style="fill-opacity:1;fill-rule:nonzero;stroke:none;stroke-width:0.0835077;stroke-linecap:round;stroke-linejoin:round;stroke-miterlimit:4;stroke-dasharray:none;stroke-opacity:1;paint-order:normal"
     id="rect216" />
  <path
     d="m 48.587903,10.02557 30.288616,17.4877 V 62.48768 L 48.587903,79.97441 18.298317,62.48768 V 27.51327 Z M 9.6156909,22.49999 9.6166809,67.50001 48.587903,90 87.559145,67.50001 87.558172,22.49999 48.587903,0 Z"
     style="fill-opacity:1;stroke:none;stroke-width:0.197261px;stroke-linecap:butt;stroke-linejoin:miter;stroke-opacity:1"
     id="path218" />
  <path
     d="M 75.753301,60.6841 V 29.31586 L 48.587903,13.63273 C 39.531152,18.86078 30.477316,24.08784 21.421536,29.31586 V 60.6841 l 27.166367,15.68412 m 0,-5.04341 -22.793472,-13.15947 -9.9e-4,-26.32 c 7.472791,-4.6061 15.138964,-8.87208 22.794443,-13.1595 l 22.792504,13.1595 9.9e-4,26.32"
     style="fill-opacity:1;stroke:none;stroke-width:0.197261px;stroke-linecap:butt;stroke-linejoin:miter;stroke-opacity:1"
     id="path220" />
  <rect
     style="fill-opacity:1;fill-rule:nonzero;stroke:none;stroke-width:0.0835077;stroke-linecap:round;stroke-linejoin:round;stroke-miterlimit:4;stroke-dasharray:none;stroke-opacity:1;paint-order:normal"
     width="7.1554518"
     height="7.1554518"
     x="-68.156464"
     y="-33.910843"
     transform="matrix(-0.8660254,-0.5,-0.5,0.8660254,0,0)"
     id="rect222" />
  <rect
     transform="matrix(0,-1,-1,0,0,0)"
     y="-97.175446"
     x="-48.580048"
     height="7.1554518"
     width="7.1554518"
     style="fill-opacity:1;fill-rule:nonzero;stroke:none;stroke-width:0.0835077;stroke-linecap:round;stroke-linejoin:round;stroke-miterlimit:4;stroke-dasharray:none;stroke-opacity:1;paint-order:normal"
     id="rect224" />
  <rect
     style="fill-opacity:1;fill-rule:nonzero;stroke:none;stroke-width:0.0835077;stroke-linecap:round;stroke-linejoin:round;stroke-miterlimit:4;stroke-dasharray:none;stroke-opacity:1;paint-order:normal"
     width="7.1554518"
     height="7.1554518"
     x="-23.154465"
     y="-111.85244"
     transform="rotate(150)"
     id="rect226" />
  <rect
     transform="matrix(0.8660254,0.5,0.5,-0.8660254,0,0)"
     y="-63.264599"
     x="61.000565"
     height="7.1554518"
     width="7.1554518"
     style="fill-opacity:1;fill-rule:nonzero;stroke:none;stroke-width:0.0835077;stroke-linecap:round;stroke-linejoin:round;stroke-miterlimit:4;stroke-dasharray:none;stroke-opacity:1;paint-order:normal"
     id="rect228" />
  <rect
     style="fill-opacity:1;fill-rule:nonzero;stroke:none;stroke-width:0.0835077;stroke-linecap:round;stroke-linejoin:round;stroke-miterlimit:4;stroke-dasharray:none;stroke-opacity:1;paint-order:normal"
     width="7.1554518"
     height="7.1554518"
     x="41.424164"
     y="0"
     transform="matrix(0,1,1,0,0,0)"
     id="rect230" />
</svg>
